<svg width="150" height="30" viewBox="0 0 150 30" fill="none" xmlns="http://www.w3.org/2000/svg">
<g id="_&#208;&#160;&#208;&#142;&#208;&#160;&#194;&#187;&#208;&#160;&#209;&#149;&#208;&#160;&#226;&#132;&#150;_1" clip-path="url(#clip0_8592_327)">
<path id="Vector" d="M48.3349 9.59014C49.7166 11.1459 50.4075 13.019 50.4075 15.2094C50.4075 17.3997 49.7166 19.2728 48.3349 20.8286C46.9532 22.3843 45.0576 23.3363 42.648 23.6889V30H38.6882V23.6889C36.2786 23.3407 34.383 22.3843 33.0013 20.8286C31.6196 19.2728 30.9287 17.3997 30.9287 15.2094C30.9287 13.019 31.6196 11.1459 33.0013 9.59014C34.383 8.03439 36.2786 7.08243 38.6882 6.72985V0.418701H42.648V6.72985C45.0576 7.08243 46.9532 8.03439 48.3349 9.59014ZM34.918 15.2094C34.918 16.3068 35.2423 17.2455 35.8911 18.0344C36.5398 18.8233 37.4708 19.361 38.6882 19.643V10.7669C37.475 11.0533 36.5398 11.5822 35.8911 12.3623C35.2423 13.1424 34.918 14.0899 34.918 15.2049V15.2094ZM42.648 19.6122C43.8612 19.3257 44.788 18.7968 45.4283 18.0168C46.0686 17.2411 46.3845 16.3023 46.3845 15.2049C46.3845 14.1075 46.0644 13.138 45.4283 12.3623C44.788 11.5866 43.8612 11.0533 42.648 10.7669V19.6078V19.6122Z" fill="black"/>
<path id="Vector_2" d="M63.8238 6.99438H66.84V23.4289H62.8802V14.0944L55.4957 23.4289H52.4795V6.99438H56.4393V16.3289L63.8238 6.99438Z" fill="black"/>
<path id="Vector_3" d="M80.0675 6.99438H84.12V23.4289H80.0675V17.1839H73.8161V23.4289H69.7637V6.99438H73.8161V13.2086H80.0675V6.99438Z" fill="black"/>
<path id="Vector_4" d="M100.582 6.99438V23.4289H98.5098V9.09663H89.4612V23.4289H87.3887V6.99438H100.582Z" fill="black"/>
<path id="Vector_5" d="M117.374 21.3398C115.773 22.9925 113.818 23.8211 111.514 23.8211C109.21 23.8211 107.255 22.9925 105.654 21.3398C104.054 19.6871 103.249 17.6422 103.249 15.2094C103.249 12.7766 104.049 10.736 105.654 9.07893C107.255 7.42622 109.21 6.59766 111.514 6.59766C113.818 6.59766 115.773 7.42622 117.374 9.07893C118.974 10.7316 119.779 12.7766 119.779 15.2094C119.779 17.6422 118.979 19.6871 117.374 21.3398ZM107.116 19.8282C108.308 21.0886 109.774 21.7189 111.514 21.7189C113.254 21.7189 114.72 21.0886 115.912 19.8282C117.104 18.5677 117.702 17.0296 117.702 15.2094C117.702 13.3892 117.104 11.8511 115.912 10.5906C114.72 9.33014 113.254 8.6999 111.514 8.6999C109.774 8.6999 108.308 9.33014 107.116 10.5906C105.924 11.8511 105.326 13.3892 105.326 15.2094C105.326 17.0296 105.924 18.5677 107.116 19.8282Z" fill="black"/>
<path id="Vector_6" d="M129.768 23.8211C127.4 23.8211 125.433 22.9925 123.862 21.3398C122.29 19.6871 121.507 17.6422 121.507 15.2094C121.507 12.7766 122.29 10.736 123.862 9.07893C125.433 7.42622 127.4 6.59766 129.768 6.59766C131.318 6.59766 132.708 6.98549 133.946 7.76557C135.181 8.54565 136.082 9.59016 136.647 10.9035L134.949 11.9216C134.528 10.9344 133.854 10.1543 132.923 9.57253C131.992 8.99078 130.939 8.6999 129.763 8.6999C128.024 8.6999 126.558 9.33014 125.366 10.5906C124.173 11.8511 123.575 13.3892 123.575 15.2094C123.575 17.0296 124.173 18.5677 125.366 19.8282C126.558 21.0886 128.024 21.7189 129.763 21.7189C130.934 21.7189 131.983 21.428 132.906 20.8462C133.829 20.2645 134.549 19.4844 135.075 18.4972L136.803 19.5505C136.154 20.8639 135.202 21.9084 133.942 22.6708C132.687 23.4377 131.293 23.8211 129.763 23.8211H129.768Z" fill="black"/>
<path id="Vector_7" d="M150 6.99438V9.09663H144.44V23.4289H142.367V9.09663H136.807V6.99438H150Z" fill="black"/>
<path id="Vector_8" d="M16.5426 23.5257C16.6479 23.5257 16.749 23.4728 16.808 23.3847L23.1352 14.3234L24.5969 12.2344C24.7865 11.9655 24.7865 11.5865 24.5969 11.3177L23.1394 9.22423L16.8248 0.149751C16.7616 0.0616062 16.6647 0.00871946 16.5594 0.00871946H3.30678C3.13828 0.00431223 2.99084 0.0836423 2.89817 0.215859C2.82234 0.308411 2.78022 0.436221 2.78022 0.568437L2.76758 22.9616C2.76758 23.0982 2.8097 23.2216 2.88553 23.3141C2.9782 23.4464 3.12986 23.5257 3.29415 23.5257H16.5468H16.5426Z" fill="#78D8F6"/>
<path id="Vector_9" d="M0 23.5258V0H16.3826" fill="#06B5EC"/>
<path id="Vector_10" d="M0 0V23.5258H16.3826" fill="#007ACD"/>
<path id="Vector_11" d="M0 0V23.5258L8.19338 11.7629L0 0Z" fill="#0046AD"/>
</g>
<defs>
<clipPath id="clip0_8592_327">
<rect width="150" height="30" fill="white"/>
</clipPath>
</defs>
</svg>
